<?xml version="1.0" standalone="no"?><!DOCTYPE svg PUBLIC "-//W3C//DTD SVG 1.1//EN" "http://www.w3.org/Graphics/SVG/1.1/DTD/svg11.dtd"><svg t="1741150660923" class="icon" viewBox="0 0 1024 1024" version="1.1" xmlns="http://www.w3.org/2000/svg" p-id="4633" xmlns:xlink="http://www.w3.org/1999/xlink" width="160" height="160"><path d="M64 64m35.84 0l824.32 0q35.84 0 35.84 35.84l0 824.32q0 35.84-35.84 35.84l-824.32 0q-35.84 0-35.84-35.84l0-824.32q0-35.84 35.84-35.84Z" fill="#F08705" p-id="4634"></path><path d="M539.552 293.376l96.64-101.984L960 515.008V924.16A35.808 35.808 0 0 1 924.16 960H362.112l-172.32-173.024z" fill="#DF6C0C" p-id="4635"></path><path d="M807.68 574.72h-105.408l-98.272-170.24h6.4a35.808 35.808 0 0 0 35.84-35.84V216.32a35.808 35.808 0 0 0-35.84-35.84H413.44a35.808 35.808 0 0 0-35.84 35.84v152.32a35.808 35.808 0 0 0 35.84 35.84h6.56l-98.272 170.24H216.32a35.808 35.808 0 0 0-35.84 35.84v152.32a35.808 35.808 0 0 0 35.84 35.84h197.12a35.808 35.808 0 0 0 35.84-35.84v-152.32a35.808 35.808 0 0 0-35.84-35.84h-29.664l98.304-170.24h59.84l98.272 170.24h-29.632a35.808 35.808 0 0 0-35.84 35.84v152.32a35.808 35.808 0 0 0 35.84 35.84h197.12a35.808 35.808 0 0 0 35.84-35.84v-152.32a35.808 35.808 0 0 0-35.84-35.84z" fill="#FFFFFF" p-id="4636"></path></svg>