<?xml version="1.0" standalone="no"?><!DOCTYPE svg PUBLIC "-//W3C//DTD SVG 1.1//EN" "http://www.w3.org/Graphics/SVG/1.1/DTD/svg11.dtd"><svg t="1676134390382" class="icon" viewBox="0 0 1024 1024" version="1.1" xmlns="http://www.w3.org/2000/svg" p-id="4445" xmlns:xlink="http://www.w3.org/1999/xlink" width="150" height="150"><path d="M800 576c0 288-304 288-304 288S192 864 192 576s304-512 304-512S800 288 800 576z" fill="#75EA9C" p-id="4446"></path><path d="M512 976a16 16 0 0 1-32 0v-672a16 16 0 0 1 32 0v672z" fill="#4D5152" p-id="4447"></path><path d="M496 104.896C560.672 158.464 768 348.032 768 576c0 252-260.96 255.968-271.936 256C484.96 831.968 224 828 224 576c0-227.488 207.392-417.44 272-471.104M496 64S192 288 192 576s304 288 304 288 304 0 304-288-304-512-304-512z" fill="#4D5152" p-id="4448"></path></svg>