<?xml version="1.0" standalone="no"?><!DOCTYPE svg PUBLIC "-//W3C//DTD SVG 1.1//EN" "http://www.w3.org/Graphics/SVG/1.1/DTD/svg11.dtd"><svg t="1656386439305" class="icon" viewBox="0 0 1024 1024" version="1.1" xmlns="http://www.w3.org/2000/svg" p-id="6744" xmlns:xlink="http://www.w3.org/1999/xlink" width="200" height="200"><defs><style type="text/css">@font-face { font-family: feedback-iconfont; src: url("//at.alicdn.com/t/font_1031158_u69w8yhxdu.woff2?t=1630033759944") format("woff2"), url("//at.alicdn.com/t/font_1031158_u69w8yhxdu.woff?t=1630033759944") format("woff"), url("//at.alicdn.com/t/font_1031158_u69w8yhxdu.ttf?t=1630033759944") format("truetype"); }
</style></defs><path d="M738.79 228.53H285.21c-31.3 0-56.67 25.37-56.67 56.67v453.6c0 31.3 25.37 56.67 56.67 56.67h453.58c31.3 0 56.67-25.37 56.67-56.67V285.21c0.01-31.3-25.37-56.68-56.67-56.68zM469.48 682.09H327.75c-7.8 0-14.17-6.38-14.17-14.17 0-7.8 6.38-14.17 14.17-14.17h141.73c7.8 0 14.17 6.38 14.17 14.17s-6.37 14.17-14.17 14.17z m14.17-105.24c0 11.11-9.09 20.2-20.2 20.2H333.77c-11.11 0-20.2-9.09-20.2-20.2V362.12c0-11.11 9.09-20.2 20.2-20.2h129.68c11.11 0 20.2 9.09 20.2 20.2v214.73z m212.6 105.24H554.52c-7.8 0-14.17-6.38-14.17-14.17 0-7.8 6.38-14.17 14.17-14.17h141.73c7.8 0 14.17 6.38 14.17 14.17 0.01 7.79-6.37 14.17-14.17 14.17z m14.18-105.24c0 11.11-9.09 20.2-20.2 20.2H560.55c-11.11 0-20.2-9.09-20.2-20.2V362.12c0-11.11 9.09-20.2 20.2-20.2h129.68c11.11 0 20.2 9.09 20.2 20.2v214.73z" p-id="6745" fill="#5f6368"></path></svg>