<?xml version="1.0" standalone="no"?><!DOCTYPE svg PUBLIC "-//W3C//DTD SVG 1.1//EN" "http://www.w3.org/Graphics/SVG/1.1/DTD/svg11.dtd"><svg t="1649126139675" class="icon" viewBox="0 0 1024 1024" version="1.1" xmlns="http://www.w3.org/2000/svg" p-id="1909" xmlns:xlink="http://www.w3.org/1999/xlink" width="200" height="200"><defs><style type="text/css">@font-face { font-family: feedback-iconfont; src: url("//at.alicdn.com/t/font_1031158_u69w8yhxdu.woff2?t=1630033759944") format("woff2"), url("//at.alicdn.com/t/font_1031158_u69w8yhxdu.woff?t=1630033759944") format("woff"), url("//at.alicdn.com/t/font_1031158_u69w8yhxdu.ttf?t=1630033759944") format("truetype"); }
</style></defs><path d="M54.549504 838.157312" p-id="1910"></path><path d="M64.463872 510.834688c0 17.584128 4.48512 32.93184 12.177408 46.889984 43.705344 79.361024 100.08576 152.830976 167.713792 220.470272 68.5312 68.530176 141.648896 123.836416 220.470272 167.718912 12.708864 7.063552 28.85632 11.722752 46.889984 11.722752 17.583104 0 33.654784-4.33152 46.889984-11.722752 77.843456-43.564032 152.162304-99.423232 220.914688-167.718912 67.852288-67.402752 124.370944-141.606912 168.615936-222.724096 7.156736-13.111296 10.819584-27.953152 10.819584-44.635136 0-16.231424-3.720192-31.04256-11.271168-44.634112-44.751872-80.638976-99.857408-154.418176-168.165376-222.718976-68.753408-68.760576-143.686656-125.142016-224.523264-169.5232-11.136-6.115328-27.056128-10.364928-43.282432-10.364928-18.033664 0-24.439808 5.250048-38.327296 13.070336-78.984192 44.470272-161.741824 99.746816-229.031936 166.817792-68.868096 68.63872-123.999232 143.159296-168.164352 221.816832C68.957184 478.175232 64.463872 493.252608 64.463872 510.834688z" p-id="1911"></path><path d="M968.418304 838.157312" p-id="1912"></path></svg>