<?xml version="1.0" standalone="no"?><!DOCTYPE svg PUBLIC "-//W3C//DTD SVG 1.1//EN" "http://www.w3.org/Graphics/SVG/1.1/DTD/svg11.dtd"><svg t="1738984077188" class="icon" viewBox="0 0 1024 1024" version="1.1" xmlns="http://www.w3.org/2000/svg" p-id="5672" xmlns:xlink="http://www.w3.org/1999/xlink" width="24" height="24"><path d="M576 576c0-106.816 33.024-215.232 128-320 37.056-51.904 129.792-103.424 256-128v128c-192 78.528-233.28 244.16-210.112 256H896a64 64 0 0 1 64 64v256a64 64 0 0 1-64 64h-256a64 64 0 0 1-64-64V576zM64 576c0-106.816 33.024-215.232 128-320 37.056-51.904 129.792-103.424 256-128v128C256 334.528 214.72 500.16 237.888 512H384a64 64 0 0 1 64 64v256a64 64 0 0 1-64 64H128a64 64 0 0 1-64-64V576z" fill="#cdcdcd" p-id="5673"></path></svg>