<?xml version="1.0" standalone="no"?><!DOCTYPE svg PUBLIC "-//W3C//DTD SVG 1.1//EN" "http://www.w3.org/Graphics/SVG/1.1/DTD/svg11.dtd"><svg t="1623904636125" class="icon" viewBox="0 0 1024 1024" version="1.1" xmlns="http://www.w3.org/2000/svg" p-id="3265" xmlns:xlink="http://www.w3.org/1999/xlink" width="200" height="200"><defs><style type="text/css"></style></defs><path d="M596.565333 766.976c6.912 0 13.824 0 20.650667-0.64a247.808 247.808 0 0 1-10.325333 10.965333l-128 128a255.616 255.616 0 1 1-361.514667-361.514666l128-128c3.584-3.584 7.210667-7.04 10.922667-10.325334a256 256 0 0 1 400.554666 81.066667 85.333333 85.333333 0 0 1-85.333333 21.333333 170.368 170.368 0 0 0-265.898667-31.573333l-38.4 38.4-89.6 89.6a170.453333 170.453333 0 0 0 241.024 241.024l89.6-89.6a341.333333 341.333333 0 0 0 88.32 11.264z m308.565334-649.429333a255.616 255.616 0 0 0-361.514667 0l-128 128a226.133333 226.133333 0 0 0-10.325333 10.965333c6.826667-0.426667 13.738667-0.64 20.650666-0.64a341.333333 341.333333 0 0 1 88.277334 11.562667l89.6-89.6a170.410667 170.410667 0 0 1 241.024 241.024l-89.6 89.6-38.4 38.4a170.325333 170.325333 0 0 1-241.024 0 172.586667 172.586667 0 0 1-24.917334-31.573334 85.333333 85.333333 0 0 0-85.333333 21.333334 255.616 255.616 0 0 0 400.512 81.066666c3.754667-3.328 7.381333-6.741333 10.965333-10.325333l128-128a255.616 255.616 0 0 0 0.085334-361.813333z" p-id="3266" fill="#78accd"></path></svg>