<?xml version="1.0" standalone="no"?><!DOCTYPE svg PUBLIC "-//W3C//DTD SVG 1.1//EN" "http://www.w3.org/Graphics/SVG/1.1/DTD/svg11.dtd"><svg t="1623904153035" class="icon" viewBox="0 0 1024 1024" version="1.1" xmlns="http://www.w3.org/2000/svg" p-id="2454" xmlns:xlink="http://www.w3.org/1999/xlink" width="200" height="200"><defs><style type="text/css"></style></defs><path d="M282.85972205 263.76469888h203.68004816a19.09502317 19.09502317 0 0 1 1.83312222 38.10053841l-1.83312222 0.08950793H301.95474522v420.09050956h420.09050956V537.46022979a19.09502317 19.09502317 0 0 1 38.10053842-1.83312222l0.08950792 1.83312222V741.14027795a19.09502317 19.09502317 0 0 1-17.26190094 19.00551525L741.14027795 760.23530112H282.85972205a19.09502317 19.09502317 0 0 1-19.00551525-17.26190094L263.76469888 741.14027795V282.85972205a19.09502317 19.09502317 0 0 1 17.26190094-19.00551525L282.85972205 263.76469888z m464.64576253-6.36520662a19.09502317 19.09502317 0 0 1 19.09502317 19.09502316v133.66516214a19.09502317 19.09502317 0 1 1-38.19004633 0V320.84688374l-165.1976093 154.19827924a19.09502317 19.09502317 0 0 1-25.58733103 0.42009052l-1.40050061-1.36171385a19.09502317 19.09502317 0 0 1-0.42009051-25.58733104l1.36231056-1.40050059 162.33335581-151.52497601H613.84032244a19.09502317 19.09502317 0 0 1 0-38.19004631h133.66516213z" fill="#707070" p-id="2455"></path></svg>